<?xml version="1.0" encoding="UTF-8"?>
<svg width="312px" height="100px" viewBox="0 0 312 100" version="1.1" xmlns="http://www.w3.org/2000/svg" xmlns:xlink="http://www.w3.org/1999/xlink">
    <!-- Generator: Sketch 51.2 (57519) - http://www.bohemiancoding.com/sketch -->
    <title>luggagecare-logo</title>
    <desc>Created with Sketch.</desc>
    <defs></defs>
    <g id="Page-1" stroke="none" stroke-width="1" fill="none" fill-rule="evenodd">
        <g id="D-home" transform="translate(-204.000000, -355.000000)" fill="#FFFFFF">
            <path d="M479.321056,364.800874 L478.126376,371.577059 L451.70968,371.577059 L452.620226,366.410707 C452.810941,365.329603 454.029654,364.269043 455.08091,364.269043 L478.966761,364.269043 C479.185772,364.269043 479.289658,364.31866 479.303225,364.329514 C479.320668,364.352772 479.374161,364.500847 479.321056,364.800874 Z M477.132489,390.261283 L468.312322,399.080286 C468.283638,399.110134 468.272396,399.154324 468.280924,399.195413 L472.504169,418.968106 C472.649918,419.650337 472.441373,420.356602 471.947918,420.854708 C471.554084,421.248542 471.037372,421.462514 470.486547,421.462514 C470.392353,421.462514 470.306686,421.455149 470.23575,421.447009 C469.590343,421.365606 469.037193,421.00162 468.711583,420.449633 L460.712808,406.903077 C460.693039,406.868965 460.658539,406.846482 460.619001,406.841831 C460.576361,406.841831 460.539149,406.854623 460.515891,406.877881 L453.776143,413.618016 C453.74707,413.645151 453.735829,413.683526 453.741644,413.721902 L455.008423,423.723956 C455.105331,424.49573 454.845618,425.251999 454.297895,425.799722 C453.824597,426.270695 453.202061,426.530408 452.537273,426.530408 C452.374467,426.530408 452.21205,426.514902 452.057773,426.483504 C451.241808,426.325351 450.562678,425.774139 450.240556,425.009342 L446.386337,415.908143 L446.320439,415.842246 L437.21769,411.986863 C436.452893,411.662028 435.902069,410.98251 435.742365,410.169259 C435.585374,409.349031 435.842374,408.514073 436.427309,407.927974 C436.972319,407.382964 437.725487,407.118987 438.501525,407.217446 L448.506681,408.484225 C448.558236,408.479961 448.586533,408.472984 448.609403,408.449726 L455.365432,401.690984 C455.393729,401.664238 455.405358,401.625474 455.402644,401.586711 C455.39683,401.548723 455.37396,401.515775 455.342562,401.495618 L441.786314,393.513899 C441.232777,393.188676 440.870341,392.637851 440.784675,392.003299 C440.704823,391.360993 440.919183,390.736132 441.372712,390.280665 C441.866166,389.78876 442.579796,389.577501 443.258926,389.720149 L463.07891,393.899204 C463.141319,393.899204 463.170004,393.887963 463.192874,393.865093 L470.769131,386.290386 L471.964586,385.09338 C472.655733,384.402234 473.574419,384.02468 474.550088,384.02468 C475.394737,384.02468 476.185117,384.320831 476.830136,384.843358 C476.932858,384.924761 477.041395,384.997635 477.132489,385.09183 C477.823635,385.782202 478.202739,386.699725 478.202739,387.677332 C478.202739,388.653 477.823635,389.570136 477.132489,390.261283 Z M504.643081,371.577059 L487.538455,371.577059 L488.449777,366.409932 C488.968427,363.468584 488.222624,360.538866 486.403858,358.371618 C484.606023,356.228792 481.895316,355 478.966761,355 L455.08091,355 C449.551348,355 444.460971,359.304647 443.491893,364.800874 L442.297213,371.577059 L425.192587,371.577059 C417.879532,371.577059 410.905654,377.505882 409.616392,384.819325 L401.444346,431.164929 C400.272536,437.80932 404.196529,443.309423 410.409098,444.260283 C410.488563,435.273823 417.820224,427.987127 426.824903,427.987127 C435.878811,427.987127 443.244971,435.3529 443.244971,444.40642 L460.194157,444.40642 C460.194157,435.3529 467.55993,427.987127 476.613838,427.987127 C485.647976,427.987127 493.000182,435.321502 493.031968,444.348663 C499.881416,443.731941 506.160658,438.06632 507.377821,431.164929 L515.549867,384.818937 C516.839517,377.505495 511.956136,371.577059 504.643081,371.577059 Z M426.824903,433.813228 C420.974381,433.813228 416.231711,438.555898 416.231711,444.40642 C416.231711,450.257329 420.974381,455 426.824903,455 C432.675425,455 437.418095,450.257329 437.418095,444.40642 C437.418095,438.555898 432.675425,433.813228 426.824903,433.813228 Z M476.613838,433.813228 C470.763316,433.813228 466.020258,438.555898 466.020258,444.40642 C466.020258,450.257329 470.763316,455 476.613838,455 C482.464359,455 487.207418,450.257329 487.207418,444.40642 C487.207418,438.555898 482.464359,433.813228 476.613838,433.813228 Z M386.424015,431.162216 L374.907872,431.162216 L373.594576,438.653194 L387.22021,438.653194 L386.208491,444.46534 L365.220962,444.46534 L370.645476,413.123786 L391.676033,413.123786 L390.664315,418.957252 L377.016974,418.957252 L375.854855,425.565981 L387.392706,425.565981 L386.424015,431.162216 Z M347.397667,427.56771 L351.70309,427.610737 C352.879939,427.610737 353.901735,427.323114 354.770418,426.747869 C355.638712,426.172236 356.258535,425.384957 356.631824,424.384868 C357.005113,423.385166 357.112487,422.41725 356.955108,421.482283 C356.668261,419.885242 355.649178,419.044081 353.898634,418.957252 L348.904391,418.935932 L347.397667,427.56771 Z M350.497168,433.379468 L346.407269,433.379468 L344.469887,444.46534 L337.108378,444.46534 L342.532505,413.123786 L353.597445,413.145494 C357.141559,413.145494 359.871647,413.973474 361.78771,415.629048 C363.702997,417.284622 364.560825,419.546064 364.36042,422.413374 C364.202266,424.678305 363.548719,426.552503 362.400943,428.036356 C361.253166,429.520209 359.646046,430.691631 357.579195,431.551786 L361.798176,444.098641 L361.798176,444.46534 L353.941274,444.46534 L350.497168,433.379468 Z M318.919159,432.776701 L325.420127,432.776701 L324.042484,421.970699 L318.919159,432.776701 Z M326.173295,438.610167 L316.163875,438.610167 L313.387271,444.46534 L305.271819,444.46534 L321.86826,413.123786 L328.799498,413.123786 L334.589936,444.46534 L326.926462,444.46534 L326.173295,438.610167 Z M305.745504,433.788419 C305.558666,435.984351 304.837672,437.936076 303.582133,439.643205 C302.326595,441.351109 300.676448,442.664404 298.631304,443.582703 C296.586161,444.500614 294.372398,444.938638 291.990402,444.895611 C288.718793,444.823511 286.142982,443.769541 284.262969,441.731375 C282.382569,439.693984 281.356896,436.931335 281.184788,433.444202 C281.055707,431.119577 281.31038,428.586793 281.948809,425.845463 C282.587238,423.104521 283.627641,420.719037 285.070018,418.688623 C286.512395,416.657822 288.212546,415.136369 290.171635,414.124651 C292.130725,413.11332 294.272389,412.628781 296.597014,412.671808 C300.012435,412.729565 302.713839,413.755626 304.701225,415.749989 C306.688612,417.744741 307.768941,420.493048 307.941049,423.994523 L300.60086,423.972815 C300.629544,422.064506 300.28494,420.700818 299.567434,419.883304 C298.849928,419.065014 297.716494,418.627378 296.166744,418.570008 C292.29198,418.440927 289.931304,421.454374 289.084329,427.610737 C288.697085,430.395093 288.50327,432.382092 288.50327,433.573284 C288.431558,437.103443 289.737488,438.919109 292.421061,439.019118 C294.157262,439.076487 295.542657,438.650093 296.575695,437.738384 C297.608733,436.82745 298.268869,435.53935 298.556104,433.874473 L305.745504,433.788419 Z M393.684739,389.68565 L382.168596,389.68565 L380.855301,397.176628 L394.481322,397.176628 L393.469216,402.988774 L372.482074,402.988774 L377.906201,371.64722 L398.937146,371.64722 L397.925427,377.480686 L384.278087,377.480686 L383.115968,384.089415 L394.65343,384.089415 L393.684739,389.68565 Z M369.102315,399.13533 C367.925466,400.51336 366.210197,401.578571 363.957671,402.332127 C361.704369,403.085682 359.207635,403.440752 356.466305,403.397338 C353.84049,403.368653 351.623238,402.708904 349.814937,401.417316 C348.007024,400.125728 346.715436,398.324793 345.940561,396.014121 C345.165685,393.703838 344.957527,391.099342 345.316474,388.200634 L345.488582,386.909046 C346.148331,382.044271 347.859724,378.191215 350.622373,375.349876 C353.384635,372.508538 356.76827,371.123918 360.771728,371.195242 C364.273203,371.252999 366.96414,372.192618 368.843765,374.015261 C370.723778,375.837904 371.771546,378.471085 371.986681,381.914802 L364.926362,381.89387 C364.825577,380.222016 364.41275,379.000589 363.688267,378.228815 C362.963784,377.457041 361.934234,377.050415 360.599619,377.007001 C358.61921,376.935676 356.983018,377.713265 355.69143,379.340542 C354.399842,380.967431 353.517593,383.29322 353.043907,386.318296 C352.641933,388.898371 352.49851,390.905526 352.613636,392.338988 C352.828772,395.793559 354.385499,397.542552 357.284595,397.585579 C359.035139,397.614652 360.570547,397.191358 361.891207,396.315699 L362.859898,391.429217 L357.758281,391.429217 L358.662625,386.241932 L371.125752,386.241932 L369.102315,399.13533 Z M325.383689,391.300135 L331.884269,391.300135 L330.507014,380.494133 L325.383689,391.300135 Z M332.637824,397.133601 L322.628792,397.133601 L319.851413,402.988774 L311.736736,402.988774 L328.332789,371.64722 L335.264027,371.64722 L341.054466,402.988774 L333.39138,402.988774 L332.637824,397.133601 Z M310.854099,399.13533 C309.676863,400.51336 307.961981,401.578571 305.709067,402.332127 C303.456153,403.085682 300.959031,403.440752 298.218089,403.397338 C295.591886,403.368653 293.375022,402.708904 291.566721,401.417316 C289.758808,400.125728 288.46722,398.324793 287.692345,396.014121 C286.917469,393.703838 286.708924,391.099342 287.06787,388.200634 L287.240366,386.909046 C287.900115,382.044271 289.61112,378.191215 292.374157,375.349876 C295.136419,372.508538 298.519279,371.123918 302.523124,371.195242 C306.024987,371.252999 308.715537,372.192618 310.595549,374.015261 C312.475174,375.837904 313.522942,378.471085 313.738077,381.914802 L306.677758,381.89387 C306.576974,380.222016 306.164534,379.000589 305.440051,378.228815 C304.715568,377.457041 303.685631,377.050415 302.351016,377.007001 C300.370994,376.935676 298.734802,377.713265 297.443214,379.340542 C296.151626,380.967431 295.268989,383.29322 294.795691,386.318296 C294.393717,388.898371 294.250294,390.905526 294.365033,392.338988 C294.580168,395.793559 296.137284,397.542552 299.035992,397.585579 C300.786923,397.614652 302.322331,397.191358 303.642604,396.315699 L304.611295,391.429217 L299.509677,391.429217 L300.413634,386.241932 L312.877148,386.241932 L310.854099,399.13533 Z M281.492567,399.13533 C280.315718,400.51336 278.600837,401.578571 276.347922,402.332127 C274.094621,403.085682 271.597887,403.440752 268.857332,403.397338 C266.230742,403.368653 264.013877,402.708904 262.205964,401.417316 C260.397663,400.125728 259.106075,398.324793 258.330812,396.014121 C257.555937,393.703838 257.347779,391.099342 257.706726,388.200634 L257.878834,386.909046 C258.538971,382.044271 260.250363,378.191215 263.013013,375.349876 C265.775275,372.508538 269.158522,371.123918 273.16198,371.195242 C276.663454,371.252999 279.354392,372.192618 281.234017,374.015261 C283.11403,375.837904 284.161797,378.471085 284.37732,381.914802 L277.316613,381.89387 C277.216217,380.222016 276.803389,379.000589 276.079294,378.228815 C275.354423,377.457041 274.324486,377.050415 272.990259,377.007001 C271.009462,376.935676 269.373657,377.713265 268.082457,379.340542 C266.790869,380.967431 265.907844,383.29322 265.434546,386.318296 C265.03296,388.898371 264.888761,390.905526 265.003888,392.338988 C265.219411,395.793559 266.776527,397.542552 269.675235,397.585579 C271.425778,397.614652 272.961186,397.191358 274.281459,396.315699 L275.25015,391.429217 L270.14892,391.429217 L271.052877,386.241932 L283.516003,386.241932 L281.492567,399.13533 Z M256.286057,371.64722 L252.798924,392.096718 C252.296554,395.641608 250.836734,398.432554 248.418301,400.470333 C246.000256,402.507724 242.954635,403.497734 239.281052,403.440752 C236.999066,403.397338 235.019044,402.906209 233.339825,401.966202 C231.660993,401.026196 230.422898,399.698946 229.626703,397.983677 C228.830121,396.269571 228.561104,394.31397 228.819654,392.118425 L232.306787,371.64722 L239.711323,371.64722 L236.245898,392.156801 C236.159456,392.875082 236.145114,393.557313 236.202871,394.203495 C236.274195,395.26638 236.607946,396.092035 237.203735,396.680848 C237.799137,397.270047 238.642236,397.585579 239.73303,397.628606 C242.889901,397.729391 244.791621,395.89822 245.437415,392.135093 L248.924548,371.64722 L256.286057,371.64722 Z M212.374002,397.176628 L225.138706,397.176628 L224.1266,402.988774 L204,402.988774 L209.424515,371.64722 L216.808119,371.64722 L212.374002,397.176628 Z" id="luggagecare-logo"></path>
        </g>
    </g>
</svg>